<?xml version="1.0" standalone="no"?><!DOCTYPE svg PUBLIC "-//W3C//DTD SVG 1.1//EN" "http://www.w3.org/Graphics/SVG/1.1/DTD/svg11.dtd"><svg t="1612171938722" class="icon" viewBox="0 0 1024 1024" version="1.1" xmlns="http://www.w3.org/2000/svg" p-id="2865" xmlns:xlink="http://www.w3.org/1999/xlink" width="200" height="200"><defs><style type="text/css"></style></defs><path d="M146.3 927.1H99.8V121.4c0-12.8 10.4-23.3 23.3-23.3 12.8 0 23.3 10.4 23.3 23.3v805.7z"  p-id="2866"></path><path d="M99.9 904.4c0-12.8 10.4-23.3 23.3-23.3H905c12.8 0 23.3 10.4 23.3 23.3 0 12.8-10.4 23.3-23.3 23.3H123.1c-12.8-0.1-23.2-10.5-23.2-23.3zM914.1 159.5c-101.2 6.6-144.8 213.4-182.3 307.6-33 73.1-73.2 134.4-153.8 124.5-106.2-4-149.3-272.7-258.9-183.1-75.5 61.3-112.9 196.3-131.4 308.2 0 1.3-0.6 2-0.6 3.3v115.3H914c0.1 0 0.1-675.8 0.1-675.8z"  p-id="2867"></path></svg>
