<?xml version="1.0" standalone="no"?><!DOCTYPE svg PUBLIC "-//W3C//DTD SVG 1.1//EN" "http://www.w3.org/Graphics/SVG/1.1/DTD/svg11.dtd"><svg t="1612172105686" class="icon" viewBox="0 0 1024 1024" version="1.1" xmlns="http://www.w3.org/2000/svg" p-id="3661" xmlns:xlink="http://www.w3.org/1999/xlink" width="200" height="200"><defs><style type="text/css"></style></defs><path d="M112 64A48 48 0 0 1 160 112V864h752a48 48 0 0 1 0 96h-800A48 48 0 0 1 64 912v-800A48 48 0 0 1 112 64z m774.848 55.296a48 48 0 1 1 82.304 49.408l-288 480a48 48 0 0 1-69.056 14.368l-184.64-131.904L311.68 747.52a48 48 0 1 1-78.496-55.232l143.552-255.936a48 48 0 0 1 67.168-11.424l181.696 129.76z" p-id="3662"></path></svg>
